<mxfile host="app.diagrams.net" modified="2024-06-01T00:14:08.261Z" agent="Mozilla/5.0 (Macintosh; Intel Mac OS X 10_15_7) AppleWebKit/537.36 (KHTML, like Gecko) Chrome/125.0.0.0 Safari/537.36" etag="zhQQ9m4sEIFED3hl7Fch" version="24.4.13" type="google">
  <diagram name="Page-1" id="03018318-947c-dd8e-b7a3-06fadd420f32">
    <mxGraphModel grid="1" page="1" gridSize="10" guides="1" tooltips="1" connect="1" arrows="1" fold="1" pageScale="1" pageWidth="1100" pageHeight="850" background="#ffffff" math="0" shadow="0">
      <root>
        <mxCell id="0" />
        <mxCell id="1" parent="0" />
        <mxCell id="677b7b8949515195-2" value="LOGO" style="whiteSpace=wrap;html=1;rounded=0;shadow=0;labelBackgroundColor=none;strokeWidth=1;fontFamily=Verdana;fontSize=28;align=center;comic=1;" vertex="1" parent="1">
          <mxGeometry x="20" y="60" width="190" height="50" as="geometry" />
        </mxCell>
        <mxCell id="677b7b8949515195-6" value="Login" style="text;html=1;points=[];align=left;verticalAlign=top;spacingTop=-4;fontSize=14;fontFamily=Verdana" vertex="1" parent="1">
          <mxGeometry x="910" y="40" width="60" height="20" as="geometry" />
        </mxCell>
        <mxCell id="677b7b8949515195-7" value="Register" style="text;html=1;points=[];align=left;verticalAlign=top;spacingTop=-4;fontSize=14;fontFamily=Verdana" vertex="1" parent="1">
          <mxGeometry x="980" y="40" width="60" height="20" as="geometry" />
        </mxCell>
        <mxCell id="677b7b8949515195-9" value="" style="line;strokeWidth=1;html=1;rounded=0;shadow=0;labelBackgroundColor=none;fillColor=none;fontFamily=Verdana;fontSize=14;fontColor=#000000;align=center;comic=1;" vertex="1" parent="1">
          <mxGeometry x="17.5" y="140" width="1060" height="10" as="geometry" />
        </mxCell>
        <mxCell id="zBftbOeddjgGF8Ppjcyg-6" value="LOGO" style="whiteSpace=wrap;html=1;rounded=0;shadow=0;labelBackgroundColor=none;strokeWidth=1;fontFamily=Verdana;fontSize=28;align=center;comic=1;" vertex="1" parent="1">
          <mxGeometry x="50" y="-770" width="190" height="50" as="geometry" />
        </mxCell>
        <mxCell id="zBftbOeddjgGF8Ppjcyg-8" value="Login" style="text;html=1;points=[];align=left;verticalAlign=top;spacingTop=-4;fontSize=14;fontFamily=Verdana" vertex="1" parent="1">
          <mxGeometry x="940" y="-790" width="60" height="20" as="geometry" />
        </mxCell>
        <mxCell id="zBftbOeddjgGF8Ppjcyg-9" value="Register" style="text;html=1;points=[];align=left;verticalAlign=top;spacingTop=-4;fontSize=14;fontFamily=Verdana" vertex="1" parent="1">
          <mxGeometry x="1010" y="-790" width="60" height="20" as="geometry" />
        </mxCell>
        <mxCell id="zBftbOeddjgGF8Ppjcyg-10" value="" style="whiteSpace=wrap;html=1;rounded=0;shadow=0;labelBackgroundColor=none;strokeWidth=1;fillColor=none;fontFamily=Verdana;fontSize=12;align=center;comic=1;" vertex="1" parent="1">
          <mxGeometry x="20" y="-600" width="200" height="180" as="geometry" />
        </mxCell>
        <mxCell id="zBftbOeddjgGF8Ppjcyg-11" value="" style="line;strokeWidth=1;html=1;rounded=0;shadow=0;labelBackgroundColor=none;fillColor=none;fontFamily=Verdana;fontSize=14;fontColor=#000000;align=center;comic=1;" vertex="1" parent="1">
          <mxGeometry x="25" y="820" width="1060" height="10" as="geometry" />
        </mxCell>
        <mxCell id="zBftbOeddjgGF8Ppjcyg-13" value="" style="whiteSpace=wrap;html=1;rounded=0;shadow=0;labelBackgroundColor=none;strokeWidth=1;fillColor=none;fontFamily=Verdana;fontSize=12;align=center;comic=1;" vertex="1" parent="1">
          <mxGeometry x="750" y="1940" width="230" height="400" as="geometry" />
        </mxCell>
        <mxCell id="zBftbOeddjgGF8Ppjcyg-14" value="Ballet shoes" style="text;html=1;points=[];align=left;verticalAlign=top;spacingTop=-4;fontSize=14;fontFamily=Verdana" vertex="1" parent="1">
          <mxGeometry x="20" y="-405" width="170" height="20" as="geometry" />
        </mxCell>
        <mxCell id="zBftbOeddjgGF8Ppjcyg-24" value="Description" style="text;html=1;points=[];align=left;verticalAlign=top;spacingTop=-4;fontSize=14;fontFamily=Verdana" vertex="1" parent="1">
          <mxGeometry x="770" y="1960" width="170" height="20" as="geometry" />
        </mxCell>
        <mxCell id="zBftbOeddjgGF8Ppjcyg-25" value="Price" style="text;html=1;points=[];align=left;verticalAlign=top;spacingTop=-4;fontSize=14;fontFamily=Verdana" vertex="1" parent="1">
          <mxGeometry x="770" y="2103" width="170" height="20" as="geometry" />
        </mxCell>
        <mxCell id="zBftbOeddjgGF8Ppjcyg-26" value="Size" style="text;html=1;points=[];align=left;verticalAlign=top;spacingTop=-4;fontSize=14;fontFamily=Verdana" vertex="1" parent="1">
          <mxGeometry x="770" y="2135" width="170" height="20" as="geometry" />
        </mxCell>
        <mxCell id="zBftbOeddjgGF8Ppjcyg-27" value="BUY" style="whiteSpace=wrap;html=1;rounded=0;shadow=0;labelBackgroundColor=none;strokeWidth=1;fontFamily=Verdana;fontSize=28;align=center;comic=1;" vertex="1" parent="1">
          <mxGeometry x="760" y="2180" width="190" height="50" as="geometry" />
        </mxCell>
        <mxCell id="zBftbOeddjgGF8Ppjcyg-28" value="message (INPUT)" style="whiteSpace=wrap;html=1;rounded=0;shadow=0;labelBackgroundColor=none;strokeWidth=1;fontFamily=Verdana;fontSize=16;align=center;comic=1;" vertex="1" parent="1">
          <mxGeometry x="760" y="2246" width="190" height="50" as="geometry" />
        </mxCell>
        <mxCell id="zBftbOeddjgGF8Ppjcyg-29" value="SEND" style="text;html=1;points=[];align=left;verticalAlign=top;spacingTop=-4;fontSize=14;fontFamily=Verdana" vertex="1" parent="1">
          <mxGeometry x="835" y="2301" width="40" height="20" as="geometry" />
        </mxCell>
        <mxCell id="zBftbOeddjgGF8Ppjcyg-30" value="" style="image;aspect=fixed;html=1;points=[];align=center;fontSize=12;image=img/lib/azure2/general/Heart.svg;" vertex="1" parent="1">
          <mxGeometry x="930" y="1950" width="34" height="31.88" as="geometry" />
        </mxCell>
        <mxCell id="zBftbOeddjgGF8Ppjcyg-31" value="EMAIL" style="whiteSpace=wrap;html=1;rounded=0;shadow=0;labelBackgroundColor=none;strokeWidth=1;fontFamily=Verdana;fontSize=28;align=center;comic=1;" vertex="1" parent="1">
          <mxGeometry x="445" y="265" width="190" height="50" as="geometry" />
        </mxCell>
        <mxCell id="zBftbOeddjgGF8Ppjcyg-32" value="PASSWORD" style="whiteSpace=wrap;html=1;rounded=0;shadow=0;labelBackgroundColor=none;strokeWidth=1;fontFamily=Verdana;fontSize=28;align=center;comic=1;" vertex="1" parent="1">
          <mxGeometry x="445" y="345" width="190" height="50" as="geometry" />
        </mxCell>
        <mxCell id="zBftbOeddjgGF8Ppjcyg-34" value="Login / Register" style="text;html=1;points=[];align=left;verticalAlign=top;spacingTop=-4;fontSize=14;fontFamily=Verdana" vertex="1" parent="1">
          <mxGeometry x="501" y="405" width="60" height="20" as="geometry" />
        </mxCell>
        <mxCell id="zBftbOeddjgGF8Ppjcyg-39" value="LOGO" style="whiteSpace=wrap;html=1;rounded=0;shadow=0;labelBackgroundColor=none;strokeWidth=1;fontFamily=Verdana;fontSize=28;align=center;comic=1;" vertex="1" parent="1">
          <mxGeometry x="40" y="940" width="190" height="50" as="geometry" />
        </mxCell>
        <mxCell id="zBftbOeddjgGF8Ppjcyg-41" value="Favourites" style="text;html=1;points=[];align=left;verticalAlign=top;spacingTop=-4;fontSize=14;fontFamily=Verdana" vertex="1" parent="1">
          <mxGeometry x="900" y="920" width="60" height="20" as="geometry" />
        </mxCell>
        <mxCell id="zBftbOeddjgGF8Ppjcyg-42" value="Logout" style="text;html=1;points=[];align=left;verticalAlign=top;spacingTop=-4;fontSize=14;fontFamily=Verdana" vertex="1" parent="1">
          <mxGeometry x="1000" y="920" width="60" height="20" as="geometry" />
        </mxCell>
        <mxCell id="zBftbOeddjgGF8Ppjcyg-44" value="" style="line;strokeWidth=1;html=1;rounded=0;shadow=0;labelBackgroundColor=none;fillColor=none;fontFamily=Verdana;fontSize=14;fontColor=#000000;align=center;comic=1;" vertex="1" parent="1">
          <mxGeometry x="20" y="1020" width="1060" height="10" as="geometry" />
        </mxCell>
        <mxCell id="zBftbOeddjgGF8Ppjcyg-123" value="ITEM NAME" style="whiteSpace=wrap;html=1;rounded=0;shadow=0;labelBackgroundColor=none;strokeWidth=1;fontFamily=Verdana;fontSize=16;align=center;comic=1;" vertex="1" parent="1">
          <mxGeometry x="65" y="2770" width="190" height="50" as="geometry" />
        </mxCell>
        <mxCell id="zBftbOeddjgGF8Ppjcyg-124" value="ITEM DESCRIPTION" style="whiteSpace=wrap;html=1;rounded=0;shadow=0;labelBackgroundColor=none;strokeWidth=1;fontFamily=Verdana;fontSize=16;align=center;comic=1;" vertex="1" parent="1">
          <mxGeometry x="65" y="2840" width="190" height="50" as="geometry" />
        </mxCell>
        <mxCell id="zBftbOeddjgGF8Ppjcyg-125" value="ITEM PRICE" style="whiteSpace=wrap;html=1;rounded=0;shadow=0;labelBackgroundColor=none;strokeWidth=1;fontFamily=Verdana;fontSize=16;align=center;comic=1;" vertex="1" parent="1">
          <mxGeometry x="65" y="2910" width="190" height="50" as="geometry" />
        </mxCell>
        <mxCell id="zBftbOeddjgGF8Ppjcyg-126" value="ITEM SIZE" style="whiteSpace=wrap;html=1;rounded=0;shadow=0;labelBackgroundColor=none;strokeWidth=1;fontFamily=Verdana;fontSize=16;align=center;comic=1;" vertex="1" parent="1">
          <mxGeometry x="65" y="2980" width="190" height="50" as="geometry" />
        </mxCell>
        <mxCell id="zBftbOeddjgGF8Ppjcyg-127" value="IMAGE" style="whiteSpace=wrap;html=1;rounded=0;shadow=0;labelBackgroundColor=none;strokeWidth=1;fontFamily=Verdana;fontSize=16;align=center;comic=1;" vertex="1" parent="1">
          <mxGeometry x="65" y="3050" width="190" height="50" as="geometry" />
        </mxCell>
        <mxCell id="zBftbOeddjgGF8Ppjcyg-128" value="ADD ITEM" style="whiteSpace=wrap;html=1;rounded=0;shadow=0;labelBackgroundColor=none;strokeWidth=1;fontFamily=Verdana;fontSize=16;align=center;comic=1;" vertex="1" parent="1">
          <mxGeometry x="295" y="3050" width="190" height="50" as="geometry" />
        </mxCell>
        <mxCell id="zBftbOeddjgGF8Ppjcyg-135" value="MAIN SCREEN" style="text;html=1;points=[];align=left;verticalAlign=top;spacingTop=-4;fontSize=14;fontFamily=Verdana" vertex="1" parent="1">
          <mxGeometry x="470" y="-770" width="60" height="20" as="geometry" />
        </mxCell>
        <mxCell id="zBftbOeddjgGF8Ppjcyg-136" value="100 $" style="text;html=1;points=[];align=left;verticalAlign=top;spacingTop=-4;fontSize=14;fontFamily=Verdana" vertex="1" parent="1">
          <mxGeometry x="20" y="-380" width="170" height="20" as="geometry" />
        </mxCell>
        <mxCell id="zBftbOeddjgGF8Ppjcyg-137" value="" style="whiteSpace=wrap;html=1;rounded=0;shadow=0;labelBackgroundColor=none;strokeWidth=1;fillColor=none;fontFamily=Verdana;fontSize=12;align=center;comic=1;" vertex="1" parent="1">
          <mxGeometry x="250" y="-600" width="200" height="180" as="geometry" />
        </mxCell>
        <mxCell id="zBftbOeddjgGF8Ppjcyg-138" value="Ballet shoes" style="text;html=1;points=[];align=left;verticalAlign=top;spacingTop=-4;fontSize=14;fontFamily=Verdana" vertex="1" parent="1">
          <mxGeometry x="250" y="-405" width="170" height="20" as="geometry" />
        </mxCell>
        <mxCell id="zBftbOeddjgGF8Ppjcyg-139" value="100 $" style="text;html=1;points=[];align=left;verticalAlign=top;spacingTop=-4;fontSize=14;fontFamily=Verdana" vertex="1" parent="1">
          <mxGeometry x="250" y="-380" width="170" height="20" as="geometry" />
        </mxCell>
        <mxCell id="zBftbOeddjgGF8Ppjcyg-140" value="" style="whiteSpace=wrap;html=1;rounded=0;shadow=0;labelBackgroundColor=none;strokeWidth=1;fillColor=none;fontFamily=Verdana;fontSize=12;align=center;comic=1;" vertex="1" parent="1">
          <mxGeometry x="481" y="-600" width="200" height="180" as="geometry" />
        </mxCell>
        <mxCell id="zBftbOeddjgGF8Ppjcyg-141" value="Ballet shoes" style="text;html=1;points=[];align=left;verticalAlign=top;spacingTop=-4;fontSize=14;fontFamily=Verdana" vertex="1" parent="1">
          <mxGeometry x="481" y="-405" width="170" height="20" as="geometry" />
        </mxCell>
        <mxCell id="zBftbOeddjgGF8Ppjcyg-142" value="100 $" style="text;html=1;points=[];align=left;verticalAlign=top;spacingTop=-4;fontSize=14;fontFamily=Verdana" vertex="1" parent="1">
          <mxGeometry x="481" y="-380" width="170" height="20" as="geometry" />
        </mxCell>
        <mxCell id="zBftbOeddjgGF8Ppjcyg-149" value="MIN" style="rounded=0;whiteSpace=wrap;html=1;" vertex="1" parent="1">
          <mxGeometry x="950" y="-600" width="110" height="40" as="geometry" />
        </mxCell>
        <mxCell id="zBftbOeddjgGF8Ppjcyg-152" value="MAX" style="rounded=0;whiteSpace=wrap;html=1;" vertex="1" parent="1">
          <mxGeometry x="950" y="-530" width="110" height="40" as="geometry" />
        </mxCell>
        <mxCell id="zBftbOeddjgGF8Ppjcyg-153" value="SEARCH" style="rounded=0;whiteSpace=wrap;html=1;" vertex="1" parent="1">
          <mxGeometry x="950" y="-460" width="110" height="40" as="geometry" />
        </mxCell>
        <mxCell id="zBftbOeddjgGF8Ppjcyg-154" value="" style="whiteSpace=wrap;html=1;rounded=0;shadow=0;labelBackgroundColor=none;strokeWidth=1;fillColor=none;fontFamily=Verdana;fontSize=12;align=center;comic=1;" vertex="1" parent="1">
          <mxGeometry x="710" y="-600" width="200" height="180" as="geometry" />
        </mxCell>
        <mxCell id="zBftbOeddjgGF8Ppjcyg-155" value="Ballet shoes" style="text;html=1;points=[];align=left;verticalAlign=top;spacingTop=-4;fontSize=14;fontFamily=Verdana" vertex="1" parent="1">
          <mxGeometry x="710" y="-405" width="170" height="20" as="geometry" />
        </mxCell>
        <mxCell id="zBftbOeddjgGF8Ppjcyg-156" value="100 $" style="text;html=1;points=[];align=left;verticalAlign=top;spacingTop=-4;fontSize=14;fontFamily=Verdana" vertex="1" parent="1">
          <mxGeometry x="710" y="-380" width="170" height="20" as="geometry" />
        </mxCell>
        <mxCell id="zBftbOeddjgGF8Ppjcyg-157" value="" style="whiteSpace=wrap;html=1;rounded=0;shadow=0;labelBackgroundColor=none;strokeWidth=1;fillColor=none;fontFamily=Verdana;fontSize=12;align=center;comic=1;" vertex="1" parent="1">
          <mxGeometry x="25" y="-330" width="200" height="180" as="geometry" />
        </mxCell>
        <mxCell id="zBftbOeddjgGF8Ppjcyg-158" value="Ballet shoes" style="text;html=1;points=[];align=left;verticalAlign=top;spacingTop=-4;fontSize=14;fontFamily=Verdana" vertex="1" parent="1">
          <mxGeometry x="25" y="-135" width="170" height="20" as="geometry" />
        </mxCell>
        <mxCell id="zBftbOeddjgGF8Ppjcyg-159" value="100 $" style="text;html=1;points=[];align=left;verticalAlign=top;spacingTop=-4;fontSize=14;fontFamily=Verdana" vertex="1" parent="1">
          <mxGeometry x="25" y="-110" width="170" height="20" as="geometry" />
        </mxCell>
        <mxCell id="zBftbOeddjgGF8Ppjcyg-160" value="" style="whiteSpace=wrap;html=1;rounded=0;shadow=0;labelBackgroundColor=none;strokeWidth=1;fillColor=none;fontFamily=Verdana;fontSize=12;align=center;comic=1;" vertex="1" parent="1">
          <mxGeometry x="255" y="-330" width="200" height="180" as="geometry" />
        </mxCell>
        <mxCell id="zBftbOeddjgGF8Ppjcyg-161" value="Ballet shoes" style="text;html=1;points=[];align=left;verticalAlign=top;spacingTop=-4;fontSize=14;fontFamily=Verdana" vertex="1" parent="1">
          <mxGeometry x="255" y="-135" width="170" height="20" as="geometry" />
        </mxCell>
        <mxCell id="zBftbOeddjgGF8Ppjcyg-162" value="100 $" style="text;html=1;points=[];align=left;verticalAlign=top;spacingTop=-4;fontSize=14;fontFamily=Verdana" vertex="1" parent="1">
          <mxGeometry x="255" y="-110" width="170" height="20" as="geometry" />
        </mxCell>
        <mxCell id="zBftbOeddjgGF8Ppjcyg-163" value="" style="whiteSpace=wrap;html=1;rounded=0;shadow=0;labelBackgroundColor=none;strokeWidth=1;fillColor=none;fontFamily=Verdana;fontSize=12;align=center;comic=1;" vertex="1" parent="1">
          <mxGeometry x="486" y="-330" width="200" height="180" as="geometry" />
        </mxCell>
        <mxCell id="zBftbOeddjgGF8Ppjcyg-164" value="Ballet shoes" style="text;html=1;points=[];align=left;verticalAlign=top;spacingTop=-4;fontSize=14;fontFamily=Verdana" vertex="1" parent="1">
          <mxGeometry x="486" y="-135" width="170" height="20" as="geometry" />
        </mxCell>
        <mxCell id="zBftbOeddjgGF8Ppjcyg-165" value="100 $" style="text;html=1;points=[];align=left;verticalAlign=top;spacingTop=-4;fontSize=14;fontFamily=Verdana" vertex="1" parent="1">
          <mxGeometry x="486" y="-110" width="170" height="20" as="geometry" />
        </mxCell>
        <mxCell id="zBftbOeddjgGF8Ppjcyg-166" value="" style="whiteSpace=wrap;html=1;rounded=0;shadow=0;labelBackgroundColor=none;strokeWidth=1;fillColor=none;fontFamily=Verdana;fontSize=12;align=center;comic=1;" vertex="1" parent="1">
          <mxGeometry x="715" y="-330" width="200" height="180" as="geometry" />
        </mxCell>
        <mxCell id="zBftbOeddjgGF8Ppjcyg-167" value="Ballet shoes" style="text;html=1;points=[];align=left;verticalAlign=top;spacingTop=-4;fontSize=14;fontFamily=Verdana" vertex="1" parent="1">
          <mxGeometry x="715" y="-135" width="170" height="20" as="geometry" />
        </mxCell>
        <mxCell id="zBftbOeddjgGF8Ppjcyg-168" value="100 $" style="text;html=1;points=[];align=left;verticalAlign=top;spacingTop=-4;fontSize=14;fontFamily=Verdana" vertex="1" parent="1">
          <mxGeometry x="715" y="-110" width="170" height="20" as="geometry" />
        </mxCell>
        <mxCell id="zBftbOeddjgGF8Ppjcyg-169" value="" style="whiteSpace=wrap;html=1;rounded=0;shadow=0;labelBackgroundColor=none;strokeWidth=1;fillColor=none;fontFamily=Verdana;fontSize=12;align=center;comic=1;" vertex="1" parent="1">
          <mxGeometry x="25" y="1060" width="200" height="180" as="geometry" />
        </mxCell>
        <mxCell id="zBftbOeddjgGF8Ppjcyg-170" value="Ballet shoes" style="text;html=1;points=[];align=left;verticalAlign=top;spacingTop=-4;fontSize=14;fontFamily=Verdana" vertex="1" parent="1">
          <mxGeometry x="25" y="1255" width="170" height="20" as="geometry" />
        </mxCell>
        <mxCell id="zBftbOeddjgGF8Ppjcyg-171" value="100 $" style="text;html=1;points=[];align=left;verticalAlign=top;spacingTop=-4;fontSize=14;fontFamily=Verdana" vertex="1" parent="1">
          <mxGeometry x="25" y="1280" width="170" height="20" as="geometry" />
        </mxCell>
        <mxCell id="zBftbOeddjgGF8Ppjcyg-172" value="" style="whiteSpace=wrap;html=1;rounded=0;shadow=0;labelBackgroundColor=none;strokeWidth=1;fillColor=none;fontFamily=Verdana;fontSize=12;align=center;comic=1;" vertex="1" parent="1">
          <mxGeometry x="255" y="1060" width="200" height="180" as="geometry" />
        </mxCell>
        <mxCell id="zBftbOeddjgGF8Ppjcyg-173" value="Ballet shoes" style="text;html=1;points=[];align=left;verticalAlign=top;spacingTop=-4;fontSize=14;fontFamily=Verdana" vertex="1" parent="1">
          <mxGeometry x="255" y="1255" width="170" height="20" as="geometry" />
        </mxCell>
        <mxCell id="zBftbOeddjgGF8Ppjcyg-174" value="100 $" style="text;html=1;points=[];align=left;verticalAlign=top;spacingTop=-4;fontSize=14;fontFamily=Verdana" vertex="1" parent="1">
          <mxGeometry x="255" y="1280" width="170" height="20" as="geometry" />
        </mxCell>
        <mxCell id="zBftbOeddjgGF8Ppjcyg-175" value="" style="whiteSpace=wrap;html=1;rounded=0;shadow=0;labelBackgroundColor=none;strokeWidth=1;fillColor=none;fontFamily=Verdana;fontSize=12;align=center;comic=1;" vertex="1" parent="1">
          <mxGeometry x="486" y="1060" width="200" height="180" as="geometry" />
        </mxCell>
        <mxCell id="zBftbOeddjgGF8Ppjcyg-176" value="Ballet shoes" style="text;html=1;points=[];align=left;verticalAlign=top;spacingTop=-4;fontSize=14;fontFamily=Verdana" vertex="1" parent="1">
          <mxGeometry x="486" y="1255" width="170" height="20" as="geometry" />
        </mxCell>
        <mxCell id="zBftbOeddjgGF8Ppjcyg-177" value="100 $" style="text;html=1;points=[];align=left;verticalAlign=top;spacingTop=-4;fontSize=14;fontFamily=Verdana" vertex="1" parent="1">
          <mxGeometry x="486" y="1280" width="170" height="20" as="geometry" />
        </mxCell>
        <mxCell id="zBftbOeddjgGF8Ppjcyg-178" value="MIN" style="rounded=0;whiteSpace=wrap;html=1;" vertex="1" parent="1">
          <mxGeometry x="955" y="1060" width="110" height="40" as="geometry" />
        </mxCell>
        <mxCell id="zBftbOeddjgGF8Ppjcyg-179" value="MAX" style="rounded=0;whiteSpace=wrap;html=1;" vertex="1" parent="1">
          <mxGeometry x="955" y="1130" width="110" height="40" as="geometry" />
        </mxCell>
        <mxCell id="zBftbOeddjgGF8Ppjcyg-180" value="SEARCH" style="rounded=0;whiteSpace=wrap;html=1;" vertex="1" parent="1">
          <mxGeometry x="955" y="1200" width="110" height="40" as="geometry" />
        </mxCell>
        <mxCell id="zBftbOeddjgGF8Ppjcyg-181" value="" style="whiteSpace=wrap;html=1;rounded=0;shadow=0;labelBackgroundColor=none;strokeWidth=1;fillColor=none;fontFamily=Verdana;fontSize=12;align=center;comic=1;" vertex="1" parent="1">
          <mxGeometry x="715" y="1060" width="200" height="180" as="geometry" />
        </mxCell>
        <mxCell id="zBftbOeddjgGF8Ppjcyg-182" value="Ballet shoes" style="text;html=1;points=[];align=left;verticalAlign=top;spacingTop=-4;fontSize=14;fontFamily=Verdana" vertex="1" parent="1">
          <mxGeometry x="715" y="1255" width="170" height="20" as="geometry" />
        </mxCell>
        <mxCell id="zBftbOeddjgGF8Ppjcyg-183" value="100 $" style="text;html=1;points=[];align=left;verticalAlign=top;spacingTop=-4;fontSize=14;fontFamily=Verdana" vertex="1" parent="1">
          <mxGeometry x="715" y="1280" width="170" height="20" as="geometry" />
        </mxCell>
        <mxCell id="zBftbOeddjgGF8Ppjcyg-184" value="" style="whiteSpace=wrap;html=1;rounded=0;shadow=0;labelBackgroundColor=none;strokeWidth=1;fillColor=none;fontFamily=Verdana;fontSize=12;align=center;comic=1;" vertex="1" parent="1">
          <mxGeometry x="30" y="1330" width="200" height="180" as="geometry" />
        </mxCell>
        <mxCell id="zBftbOeddjgGF8Ppjcyg-185" value="Ballet shoes" style="text;html=1;points=[];align=left;verticalAlign=top;spacingTop=-4;fontSize=14;fontFamily=Verdana" vertex="1" parent="1">
          <mxGeometry x="30" y="1525" width="170" height="20" as="geometry" />
        </mxCell>
        <mxCell id="zBftbOeddjgGF8Ppjcyg-186" value="100 $" style="text;html=1;points=[];align=left;verticalAlign=top;spacingTop=-4;fontSize=14;fontFamily=Verdana" vertex="1" parent="1">
          <mxGeometry x="30" y="1550" width="170" height="20" as="geometry" />
        </mxCell>
        <mxCell id="zBftbOeddjgGF8Ppjcyg-187" value="" style="whiteSpace=wrap;html=1;rounded=0;shadow=0;labelBackgroundColor=none;strokeWidth=1;fillColor=none;fontFamily=Verdana;fontSize=12;align=center;comic=1;" vertex="1" parent="1">
          <mxGeometry x="260" y="1330" width="200" height="180" as="geometry" />
        </mxCell>
        <mxCell id="zBftbOeddjgGF8Ppjcyg-188" value="Ballet shoes" style="text;html=1;points=[];align=left;verticalAlign=top;spacingTop=-4;fontSize=14;fontFamily=Verdana" vertex="1" parent="1">
          <mxGeometry x="260" y="1525" width="170" height="20" as="geometry" />
        </mxCell>
        <mxCell id="zBftbOeddjgGF8Ppjcyg-189" value="100 $" style="text;html=1;points=[];align=left;verticalAlign=top;spacingTop=-4;fontSize=14;fontFamily=Verdana" vertex="1" parent="1">
          <mxGeometry x="260" y="1550" width="170" height="20" as="geometry" />
        </mxCell>
        <mxCell id="zBftbOeddjgGF8Ppjcyg-190" value="" style="whiteSpace=wrap;html=1;rounded=0;shadow=0;labelBackgroundColor=none;strokeWidth=1;fillColor=none;fontFamily=Verdana;fontSize=12;align=center;comic=1;" vertex="1" parent="1">
          <mxGeometry x="491" y="1330" width="200" height="180" as="geometry" />
        </mxCell>
        <mxCell id="zBftbOeddjgGF8Ppjcyg-191" value="Ballet shoes" style="text;html=1;points=[];align=left;verticalAlign=top;spacingTop=-4;fontSize=14;fontFamily=Verdana" vertex="1" parent="1">
          <mxGeometry x="491" y="1525" width="170" height="20" as="geometry" />
        </mxCell>
        <mxCell id="zBftbOeddjgGF8Ppjcyg-192" value="100 $" style="text;html=1;points=[];align=left;verticalAlign=top;spacingTop=-4;fontSize=14;fontFamily=Verdana" vertex="1" parent="1">
          <mxGeometry x="491" y="1550" width="170" height="20" as="geometry" />
        </mxCell>
        <mxCell id="zBftbOeddjgGF8Ppjcyg-193" value="" style="whiteSpace=wrap;html=1;rounded=0;shadow=0;labelBackgroundColor=none;strokeWidth=1;fillColor=none;fontFamily=Verdana;fontSize=12;align=center;comic=1;" vertex="1" parent="1">
          <mxGeometry x="720" y="1330" width="200" height="180" as="geometry" />
        </mxCell>
        <mxCell id="zBftbOeddjgGF8Ppjcyg-194" value="Ballet shoes" style="text;html=1;points=[];align=left;verticalAlign=top;spacingTop=-4;fontSize=14;fontFamily=Verdana" vertex="1" parent="1">
          <mxGeometry x="720" y="1525" width="170" height="20" as="geometry" />
        </mxCell>
        <mxCell id="zBftbOeddjgGF8Ppjcyg-195" value="100 $" style="text;html=1;points=[];align=left;verticalAlign=top;spacingTop=-4;fontSize=14;fontFamily=Verdana" vertex="1" parent="1">
          <mxGeometry x="720" y="1550" width="170" height="20" as="geometry" />
        </mxCell>
        <mxCell id="zBftbOeddjgGF8Ppjcyg-196" value="MAIN SCREEN" style="text;html=1;points=[];align=left;verticalAlign=top;spacingTop=-4;fontSize=14;fontFamily=Verdana" vertex="1" parent="1">
          <mxGeometry x="421" y="910" width="60" height="20" as="geometry" />
        </mxCell>
        <mxCell id="zBftbOeddjgGF8Ppjcyg-197" value="MY ITEMS" style="text;html=1;points=[];align=left;verticalAlign=top;spacingTop=-4;fontSize=14;fontFamily=Verdana" vertex="1" parent="1">
          <mxGeometry x="895" y="970" width="60" height="20" as="geometry" />
        </mxCell>
        <mxCell id="zBftbOeddjgGF8Ppjcyg-198" value="ADD ITEM" style="text;html=1;points=[];align=left;verticalAlign=top;spacingTop=-4;fontSize=14;fontFamily=Verdana" vertex="1" parent="1">
          <mxGeometry x="810" y="970" width="60" height="20" as="geometry" />
        </mxCell>
        <mxCell id="zBftbOeddjgGF8Ppjcyg-232" value="LOGO" style="whiteSpace=wrap;html=1;rounded=0;shadow=0;labelBackgroundColor=none;strokeWidth=1;fontFamily=Verdana;fontSize=28;align=center;comic=1;" vertex="1" parent="1">
          <mxGeometry x="40" y="1770" width="190" height="50" as="geometry" />
        </mxCell>
        <mxCell id="zBftbOeddjgGF8Ppjcyg-233" value="Favourites" style="text;html=1;points=[];align=left;verticalAlign=top;spacingTop=-4;fontSize=14;fontFamily=Verdana" vertex="1" parent="1">
          <mxGeometry x="900" y="1750" width="60" height="20" as="geometry" />
        </mxCell>
        <mxCell id="zBftbOeddjgGF8Ppjcyg-234" value="Logout" style="text;html=1;points=[];align=left;verticalAlign=top;spacingTop=-4;fontSize=14;fontFamily=Verdana" vertex="1" parent="1">
          <mxGeometry x="1000" y="1750" width="60" height="20" as="geometry" />
        </mxCell>
        <mxCell id="zBftbOeddjgGF8Ppjcyg-235" value="" style="line;strokeWidth=1;html=1;rounded=0;shadow=0;labelBackgroundColor=none;fillColor=none;fontFamily=Verdana;fontSize=14;fontColor=#000000;align=center;comic=1;" vertex="1" parent="1">
          <mxGeometry x="20" y="1850" width="1060" height="10" as="geometry" />
        </mxCell>
        <mxCell id="zBftbOeddjgGF8Ppjcyg-263" value="USER CLICKED ON AN ITEM" style="text;html=1;points=[];align=left;verticalAlign=top;spacingTop=-4;fontSize=14;fontFamily=Verdana" vertex="1" parent="1">
          <mxGeometry x="421" y="1740" width="60" height="20" as="geometry" />
        </mxCell>
        <mxCell id="zBftbOeddjgGF8Ppjcyg-266" value="" style="whiteSpace=wrap;html=1;rounded=0;shadow=0;labelBackgroundColor=none;strokeWidth=1;fillColor=none;fontFamily=Verdana;fontSize=12;align=center;comic=1;" vertex="1" parent="1">
          <mxGeometry x="40" y="1945" width="550" height="400" as="geometry" />
        </mxCell>
        <mxCell id="zBftbOeddjgGF8Ppjcyg-269" value="ITEM NAME" style="text;html=1;points=[];align=left;verticalAlign=top;spacingTop=-4;fontSize=27;fontFamily=Verdana" vertex="1" parent="1">
          <mxGeometry x="50" y="1890" width="170" height="20" as="geometry" />
        </mxCell>
        <mxCell id="zBftbOeddjgGF8Ppjcyg-278" value="LOGO" style="whiteSpace=wrap;html=1;rounded=0;shadow=0;labelBackgroundColor=none;strokeWidth=1;fontFamily=Verdana;fontSize=28;align=center;comic=1;" vertex="1" parent="1">
          <mxGeometry x="45" y="2610" width="190" height="50" as="geometry" />
        </mxCell>
        <mxCell id="zBftbOeddjgGF8Ppjcyg-279" value="Favourites" style="text;html=1;points=[];align=left;verticalAlign=top;spacingTop=-4;fontSize=14;fontFamily=Verdana" vertex="1" parent="1">
          <mxGeometry x="905" y="2590" width="60" height="20" as="geometry" />
        </mxCell>
        <mxCell id="zBftbOeddjgGF8Ppjcyg-280" value="Logout" style="text;html=1;points=[];align=left;verticalAlign=top;spacingTop=-4;fontSize=14;fontFamily=Verdana" vertex="1" parent="1">
          <mxGeometry x="1005" y="2590" width="60" height="20" as="geometry" />
        </mxCell>
        <mxCell id="zBftbOeddjgGF8Ppjcyg-281" value="" style="line;strokeWidth=1;html=1;rounded=0;shadow=0;labelBackgroundColor=none;fillColor=none;fontFamily=Verdana;fontSize=14;fontColor=#000000;align=center;comic=1;" vertex="1" parent="1">
          <mxGeometry x="16" y="2690" width="1060" height="10" as="geometry" />
        </mxCell>
        <mxCell id="zBftbOeddjgGF8Ppjcyg-282" value="USER CLICKED ON ADD ITEM" style="text;html=1;points=[];align=left;verticalAlign=top;spacingTop=-4;fontSize=14;fontFamily=Verdana" vertex="1" parent="1">
          <mxGeometry x="426" y="2580" width="60" height="20" as="geometry" />
        </mxCell>
        <mxCell id="zBftbOeddjgGF8Ppjcyg-287" value="ITEM FORM WITH ALL THE FIELDS" style="text;html=1;points=[];align=left;verticalAlign=top;spacingTop=-4;fontSize=14;fontFamily=Verdana" vertex="1" parent="1">
          <mxGeometry x="369" y="2800" width="60" height="20" as="geometry" />
        </mxCell>
        <mxCell id="zBftbOeddjgGF8Ppjcyg-288" value="WHEN THE ITEM IS CREATED WE REDIRECT USER TO THE ITEM PAGE BUT WITH DIFFERENT BUTTONS:" style="text;html=1;points=[];align=left;verticalAlign=top;spacingTop=-4;fontSize=10;fontFamily=Verdana;fontStyle=2" vertex="1" parent="1">
          <mxGeometry x="155" y="3120" width="60" height="20" as="geometry" />
        </mxCell>
        <mxCell id="zBftbOeddjgGF8Ppjcyg-289" value="" style="whiteSpace=wrap;html=1;rounded=0;shadow=0;labelBackgroundColor=none;strokeWidth=1;fillColor=none;fontFamily=Verdana;fontSize=12;align=center;comic=1;" vertex="1" parent="1">
          <mxGeometry x="760" y="3660" width="230" height="400" as="geometry" />
        </mxCell>
        <mxCell id="zBftbOeddjgGF8Ppjcyg-290" value="Description" style="text;html=1;points=[];align=left;verticalAlign=top;spacingTop=-4;fontSize=14;fontFamily=Verdana" vertex="1" parent="1">
          <mxGeometry x="780" y="3680" width="170" height="20" as="geometry" />
        </mxCell>
        <mxCell id="zBftbOeddjgGF8Ppjcyg-291" value="Price" style="text;html=1;points=[];align=left;verticalAlign=top;spacingTop=-4;fontSize=14;fontFamily=Verdana" vertex="1" parent="1">
          <mxGeometry x="780" y="3823" width="170" height="20" as="geometry" />
        </mxCell>
        <mxCell id="zBftbOeddjgGF8Ppjcyg-292" value="Size" style="text;html=1;points=[];align=left;verticalAlign=top;spacingTop=-4;fontSize=14;fontFamily=Verdana" vertex="1" parent="1">
          <mxGeometry x="780" y="3855" width="170" height="20" as="geometry" />
        </mxCell>
        <mxCell id="zBftbOeddjgGF8Ppjcyg-293" value="EDIT" style="whiteSpace=wrap;html=1;rounded=0;shadow=0;labelBackgroundColor=none;strokeWidth=1;fontFamily=Verdana;fontSize=28;align=center;comic=1;" vertex="1" parent="1">
          <mxGeometry x="770" y="3900" width="190" height="50" as="geometry" />
        </mxCell>
        <mxCell id="zBftbOeddjgGF8Ppjcyg-294" value="DELETE" style="whiteSpace=wrap;html=1;rounded=0;shadow=0;labelBackgroundColor=none;strokeWidth=1;fontFamily=Verdana;fontSize=16;align=center;comic=1;" vertex="1" parent="1">
          <mxGeometry x="770" y="3966" width="190" height="50" as="geometry" />
        </mxCell>
        <mxCell id="zBftbOeddjgGF8Ppjcyg-297" value="LOGO" style="whiteSpace=wrap;html=1;rounded=0;shadow=0;labelBackgroundColor=none;strokeWidth=1;fontFamily=Verdana;fontSize=28;align=center;comic=1;" vertex="1" parent="1">
          <mxGeometry x="50" y="3490" width="190" height="50" as="geometry" />
        </mxCell>
        <mxCell id="zBftbOeddjgGF8Ppjcyg-298" value="Favourites" style="text;html=1;points=[];align=left;verticalAlign=top;spacingTop=-4;fontSize=14;fontFamily=Verdana" vertex="1" parent="1">
          <mxGeometry x="910" y="3470" width="60" height="20" as="geometry" />
        </mxCell>
        <mxCell id="zBftbOeddjgGF8Ppjcyg-299" value="Logout" style="text;html=1;points=[];align=left;verticalAlign=top;spacingTop=-4;fontSize=14;fontFamily=Verdana" vertex="1" parent="1">
          <mxGeometry x="1010" y="3470" width="60" height="20" as="geometry" />
        </mxCell>
        <mxCell id="zBftbOeddjgGF8Ppjcyg-300" value="THE NEWLY ADDED ITEM IS DISPLAYED:" style="text;html=1;points=[];align=left;verticalAlign=top;spacingTop=-4;fontSize=14;fontFamily=Verdana" vertex="1" parent="1">
          <mxGeometry x="431" y="3460" width="60" height="20" as="geometry" />
        </mxCell>
        <mxCell id="zBftbOeddjgGF8Ppjcyg-303" value="" style="whiteSpace=wrap;html=1;rounded=0;shadow=0;labelBackgroundColor=none;strokeWidth=1;fillColor=none;fontFamily=Verdana;fontSize=12;align=center;comic=1;" vertex="1" parent="1">
          <mxGeometry x="50" y="3665" width="550" height="400" as="geometry" />
        </mxCell>
        <mxCell id="zBftbOeddjgGF8Ppjcyg-304" value="ITEM NAME" style="text;html=1;points=[];align=left;verticalAlign=top;spacingTop=-4;fontSize=27;fontFamily=Verdana" vertex="1" parent="1">
          <mxGeometry x="60" y="3610" width="170" height="20" as="geometry" />
        </mxCell>
        <mxCell id="zBftbOeddjgGF8Ppjcyg-308" value="" style="curved=1;endArrow=classic;html=1;rounded=0;" edge="1" parent="1" source="zBftbOeddjgGF8Ppjcyg-293">
          <mxGeometry width="50" height="50" relative="1" as="geometry">
            <mxPoint x="975" y="3270" as="sourcePoint" />
            <mxPoint x="505" y="2850" as="targetPoint" />
            <Array as="points">
              <mxPoint x="1025" y="3270" />
              <mxPoint x="875" y="3310" />
              <mxPoint x="975" y="3220" />
            </Array>
          </mxGeometry>
        </mxCell>
        <mxCell id="zBftbOeddjgGF8Ppjcyg-309" value="LOGO" style="whiteSpace=wrap;html=1;rounded=0;shadow=0;labelBackgroundColor=none;strokeWidth=1;fontFamily=Verdana;fontSize=28;align=center;comic=1;" vertex="1" parent="1">
          <mxGeometry x="57.5" y="4300" width="190" height="50" as="geometry" />
        </mxCell>
        <mxCell id="zBftbOeddjgGF8Ppjcyg-310" value="Favourites" style="text;html=1;points=[];align=left;verticalAlign=top;spacingTop=-4;fontSize=14;fontFamily=Verdana" vertex="1" parent="1">
          <mxGeometry x="917.5" y="4280" width="60" height="20" as="geometry" />
        </mxCell>
        <mxCell id="zBftbOeddjgGF8Ppjcyg-311" value="Logout" style="text;html=1;points=[];align=left;verticalAlign=top;spacingTop=-4;fontSize=14;fontFamily=Verdana" vertex="1" parent="1">
          <mxGeometry x="1017.5" y="4280" width="60" height="20" as="geometry" />
        </mxCell>
        <mxCell id="zBftbOeddjgGF8Ppjcyg-312" value="" style="line;strokeWidth=1;html=1;rounded=0;shadow=0;labelBackgroundColor=none;fillColor=none;fontFamily=Verdana;fontSize=14;fontColor=#000000;align=center;comic=1;" vertex="1" parent="1">
          <mxGeometry x="19" y="4380" width="1060" height="10" as="geometry" />
        </mxCell>
        <mxCell id="zBftbOeddjgGF8Ppjcyg-313" value="" style="whiteSpace=wrap;html=1;rounded=0;shadow=0;labelBackgroundColor=none;strokeWidth=1;fillColor=none;fontFamily=Verdana;fontSize=12;align=center;comic=1;" vertex="1" parent="1">
          <mxGeometry x="42.5" y="4420" width="200" height="180" as="geometry" />
        </mxCell>
        <mxCell id="zBftbOeddjgGF8Ppjcyg-314" value="Ballet shoes" style="text;html=1;points=[];align=left;verticalAlign=top;spacingTop=-4;fontSize=14;fontFamily=Verdana" vertex="1" parent="1">
          <mxGeometry x="42.5" y="4615" width="170" height="20" as="geometry" />
        </mxCell>
        <mxCell id="zBftbOeddjgGF8Ppjcyg-315" value="100 $" style="text;html=1;points=[];align=left;verticalAlign=top;spacingTop=-4;fontSize=14;fontFamily=Verdana" vertex="1" parent="1">
          <mxGeometry x="42.5" y="4640" width="170" height="20" as="geometry" />
        </mxCell>
        <mxCell id="zBftbOeddjgGF8Ppjcyg-316" value="" style="whiteSpace=wrap;html=1;rounded=0;shadow=0;labelBackgroundColor=none;strokeWidth=1;fillColor=none;fontFamily=Verdana;fontSize=12;align=center;comic=1;" vertex="1" parent="1">
          <mxGeometry x="272.5" y="4420" width="200" height="180" as="geometry" />
        </mxCell>
        <mxCell id="zBftbOeddjgGF8Ppjcyg-317" value="Ballet shoes" style="text;html=1;points=[];align=left;verticalAlign=top;spacingTop=-4;fontSize=14;fontFamily=Verdana" vertex="1" parent="1">
          <mxGeometry x="272.5" y="4615" width="170" height="20" as="geometry" />
        </mxCell>
        <mxCell id="zBftbOeddjgGF8Ppjcyg-318" value="100 $" style="text;html=1;points=[];align=left;verticalAlign=top;spacingTop=-4;fontSize=14;fontFamily=Verdana" vertex="1" parent="1">
          <mxGeometry x="272.5" y="4640" width="170" height="20" as="geometry" />
        </mxCell>
        <mxCell id="zBftbOeddjgGF8Ppjcyg-319" value="" style="whiteSpace=wrap;html=1;rounded=0;shadow=0;labelBackgroundColor=none;strokeWidth=1;fillColor=none;fontFamily=Verdana;fontSize=12;align=center;comic=1;" vertex="1" parent="1">
          <mxGeometry x="503.5" y="4420" width="200" height="180" as="geometry" />
        </mxCell>
        <mxCell id="zBftbOeddjgGF8Ppjcyg-320" value="Ballet shoes" style="text;html=1;points=[];align=left;verticalAlign=top;spacingTop=-4;fontSize=14;fontFamily=Verdana" vertex="1" parent="1">
          <mxGeometry x="503.5" y="4615" width="170" height="20" as="geometry" />
        </mxCell>
        <mxCell id="zBftbOeddjgGF8Ppjcyg-321" value="100 $" style="text;html=1;points=[];align=left;verticalAlign=top;spacingTop=-4;fontSize=14;fontFamily=Verdana" vertex="1" parent="1">
          <mxGeometry x="503.5" y="4640" width="170" height="20" as="geometry" />
        </mxCell>
        <mxCell id="zBftbOeddjgGF8Ppjcyg-325" value="" style="whiteSpace=wrap;html=1;rounded=0;shadow=0;labelBackgroundColor=none;strokeWidth=1;fillColor=none;fontFamily=Verdana;fontSize=12;align=center;comic=1;" vertex="1" parent="1">
          <mxGeometry x="732.5" y="4420" width="200" height="180" as="geometry" />
        </mxCell>
        <mxCell id="zBftbOeddjgGF8Ppjcyg-326" value="Ballet shoes" style="text;html=1;points=[];align=left;verticalAlign=top;spacingTop=-4;fontSize=14;fontFamily=Verdana" vertex="1" parent="1">
          <mxGeometry x="732.5" y="4615" width="170" height="20" as="geometry" />
        </mxCell>
        <mxCell id="zBftbOeddjgGF8Ppjcyg-327" value="100 $" style="text;html=1;points=[];align=left;verticalAlign=top;spacingTop=-4;fontSize=14;fontFamily=Verdana" vertex="1" parent="1">
          <mxGeometry x="732.5" y="4640" width="170" height="20" as="geometry" />
        </mxCell>
        <mxCell id="zBftbOeddjgGF8Ppjcyg-328" value="" style="whiteSpace=wrap;html=1;rounded=0;shadow=0;labelBackgroundColor=none;strokeWidth=1;fillColor=none;fontFamily=Verdana;fontSize=12;align=center;comic=1;" vertex="1" parent="1">
          <mxGeometry x="47.5" y="4690" width="200" height="180" as="geometry" />
        </mxCell>
        <mxCell id="zBftbOeddjgGF8Ppjcyg-329" value="Ballet shoes" style="text;html=1;points=[];align=left;verticalAlign=top;spacingTop=-4;fontSize=14;fontFamily=Verdana" vertex="1" parent="1">
          <mxGeometry x="47.5" y="4885" width="170" height="20" as="geometry" />
        </mxCell>
        <mxCell id="zBftbOeddjgGF8Ppjcyg-330" value="100 $" style="text;html=1;points=[];align=left;verticalAlign=top;spacingTop=-4;fontSize=14;fontFamily=Verdana" vertex="1" parent="1">
          <mxGeometry x="47.5" y="4910" width="170" height="20" as="geometry" />
        </mxCell>
        <mxCell id="zBftbOeddjgGF8Ppjcyg-331" value="" style="whiteSpace=wrap;html=1;rounded=0;shadow=0;labelBackgroundColor=none;strokeWidth=1;fillColor=none;fontFamily=Verdana;fontSize=12;align=center;comic=1;" vertex="1" parent="1">
          <mxGeometry x="277.5" y="4690" width="200" height="180" as="geometry" />
        </mxCell>
        <mxCell id="zBftbOeddjgGF8Ppjcyg-332" value="Ballet shoes" style="text;html=1;points=[];align=left;verticalAlign=top;spacingTop=-4;fontSize=14;fontFamily=Verdana" vertex="1" parent="1">
          <mxGeometry x="277.5" y="4885" width="170" height="20" as="geometry" />
        </mxCell>
        <mxCell id="zBftbOeddjgGF8Ppjcyg-333" value="100 $" style="text;html=1;points=[];align=left;verticalAlign=top;spacingTop=-4;fontSize=14;fontFamily=Verdana" vertex="1" parent="1">
          <mxGeometry x="277.5" y="4910" width="170" height="20" as="geometry" />
        </mxCell>
        <mxCell id="zBftbOeddjgGF8Ppjcyg-334" value="" style="whiteSpace=wrap;html=1;rounded=0;shadow=0;labelBackgroundColor=none;strokeWidth=1;fillColor=none;fontFamily=Verdana;fontSize=12;align=center;comic=1;" vertex="1" parent="1">
          <mxGeometry x="508.5" y="4690" width="200" height="180" as="geometry" />
        </mxCell>
        <mxCell id="zBftbOeddjgGF8Ppjcyg-335" value="Ballet shoes" style="text;html=1;points=[];align=left;verticalAlign=top;spacingTop=-4;fontSize=14;fontFamily=Verdana" vertex="1" parent="1">
          <mxGeometry x="508.5" y="4885" width="170" height="20" as="geometry" />
        </mxCell>
        <mxCell id="zBftbOeddjgGF8Ppjcyg-336" value="100 $" style="text;html=1;points=[];align=left;verticalAlign=top;spacingTop=-4;fontSize=14;fontFamily=Verdana" vertex="1" parent="1">
          <mxGeometry x="508.5" y="4910" width="170" height="20" as="geometry" />
        </mxCell>
        <mxCell id="zBftbOeddjgGF8Ppjcyg-337" value="" style="whiteSpace=wrap;html=1;rounded=0;shadow=0;labelBackgroundColor=none;strokeWidth=1;fillColor=none;fontFamily=Verdana;fontSize=12;align=center;comic=1;" vertex="1" parent="1">
          <mxGeometry x="737.5" y="4690" width="200" height="180" as="geometry" />
        </mxCell>
        <mxCell id="zBftbOeddjgGF8Ppjcyg-338" value="Ballet shoes" style="text;html=1;points=[];align=left;verticalAlign=top;spacingTop=-4;fontSize=14;fontFamily=Verdana" vertex="1" parent="1">
          <mxGeometry x="737.5" y="4885" width="170" height="20" as="geometry" />
        </mxCell>
        <mxCell id="zBftbOeddjgGF8Ppjcyg-339" value="100 $" style="text;html=1;points=[];align=left;verticalAlign=top;spacingTop=-4;fontSize=14;fontFamily=Verdana" vertex="1" parent="1">
          <mxGeometry x="737.5" y="4910" width="170" height="20" as="geometry" />
        </mxCell>
        <mxCell id="zBftbOeddjgGF8Ppjcyg-340" value="MY ITEMS SCREEN" style="text;html=1;points=[];align=left;verticalAlign=top;spacingTop=-4;fontSize=14;fontFamily=Verdana" vertex="1" parent="1">
          <mxGeometry x="438.5" y="4270" width="60" height="20" as="geometry" />
        </mxCell>
        <mxCell id="zBftbOeddjgGF8Ppjcyg-344" value="MESSAGES" style="text;html=1;points=[];align=left;verticalAlign=top;spacingTop=-4;fontSize=14;fontFamily=Verdana" vertex="1" parent="1">
          <mxGeometry x="981" y="970" width="60" height="20" as="geometry" />
        </mxCell>
        <mxCell id="zBftbOeddjgGF8Ppjcyg-348" value="MY ITEMS" style="text;html=1;points=[];align=left;verticalAlign=top;spacingTop=-4;fontSize=14;fontFamily=Verdana" vertex="1" parent="1">
          <mxGeometry x="889.5" y="1790" width="60" height="20" as="geometry" />
        </mxCell>
        <mxCell id="zBftbOeddjgGF8Ppjcyg-349" value="ADD ITEM" style="text;html=1;points=[];align=left;verticalAlign=top;spacingTop=-4;fontSize=14;fontFamily=Verdana" vertex="1" parent="1">
          <mxGeometry x="804.5" y="1790" width="60" height="20" as="geometry" />
        </mxCell>
        <mxCell id="zBftbOeddjgGF8Ppjcyg-350" value="MESSAGES" style="text;html=1;points=[];align=left;verticalAlign=top;spacingTop=-4;fontSize=14;fontFamily=Verdana" vertex="1" parent="1">
          <mxGeometry x="975.5" y="1790" width="60" height="20" as="geometry" />
        </mxCell>
        <mxCell id="zBftbOeddjgGF8Ppjcyg-351" value="MY ITEMS" style="text;html=1;points=[];align=left;verticalAlign=top;spacingTop=-4;fontSize=14;fontFamily=Verdana" vertex="1" parent="1">
          <mxGeometry x="893.5" y="2630" width="60" height="20" as="geometry" />
        </mxCell>
        <mxCell id="zBftbOeddjgGF8Ppjcyg-352" value="ADD ITEM" style="text;html=1;points=[];align=left;verticalAlign=top;spacingTop=-4;fontSize=14;fontFamily=Verdana" vertex="1" parent="1">
          <mxGeometry x="808.5" y="2630" width="60" height="20" as="geometry" />
        </mxCell>
        <mxCell id="zBftbOeddjgGF8Ppjcyg-353" value="MESSAGES" style="text;html=1;points=[];align=left;verticalAlign=top;spacingTop=-4;fontSize=14;fontFamily=Verdana" vertex="1" parent="1">
          <mxGeometry x="979.5" y="2630" width="60" height="20" as="geometry" />
        </mxCell>
        <mxCell id="zBftbOeddjgGF8Ppjcyg-354" value="MY ITEMS" style="text;html=1;points=[];align=left;verticalAlign=top;spacingTop=-4;fontSize=14;fontFamily=Verdana" vertex="1" parent="1">
          <mxGeometry x="898" y="3530" width="60" height="20" as="geometry" />
        </mxCell>
        <mxCell id="zBftbOeddjgGF8Ppjcyg-355" value="ADD ITEM" style="text;html=1;points=[];align=left;verticalAlign=top;spacingTop=-4;fontSize=14;fontFamily=Verdana" vertex="1" parent="1">
          <mxGeometry x="813" y="3530" width="60" height="20" as="geometry" />
        </mxCell>
        <mxCell id="zBftbOeddjgGF8Ppjcyg-356" value="MESSAGES" style="text;html=1;points=[];align=left;verticalAlign=top;spacingTop=-4;fontSize=14;fontFamily=Verdana" vertex="1" parent="1">
          <mxGeometry x="984" y="3530" width="60" height="20" as="geometry" />
        </mxCell>
        <mxCell id="zBftbOeddjgGF8Ppjcyg-357" value="MY ITEMS" style="text;html=1;points=[];align=left;verticalAlign=top;spacingTop=-4;fontSize=14;fontFamily=Verdana" vertex="1" parent="1">
          <mxGeometry x="906.5" y="4315" width="60" height="20" as="geometry" />
        </mxCell>
        <mxCell id="zBftbOeddjgGF8Ppjcyg-358" value="ADD ITEM" style="text;html=1;points=[];align=left;verticalAlign=top;spacingTop=-4;fontSize=14;fontFamily=Verdana" vertex="1" parent="1">
          <mxGeometry x="821.5" y="4315" width="60" height="20" as="geometry" />
        </mxCell>
        <mxCell id="zBftbOeddjgGF8Ppjcyg-359" value="MESSAGES" style="text;html=1;points=[];align=left;verticalAlign=top;spacingTop=-4;fontSize=14;fontFamily=Verdana" vertex="1" parent="1">
          <mxGeometry x="992.5" y="4315" width="60" height="20" as="geometry" />
        </mxCell>
        <mxCell id="zBftbOeddjgGF8Ppjcyg-360" value="LOGO" style="whiteSpace=wrap;html=1;rounded=0;shadow=0;labelBackgroundColor=none;strokeWidth=1;fontFamily=Verdana;fontSize=28;align=center;comic=1;" vertex="1" parent="1">
          <mxGeometry x="56" y="5190" width="190" height="50" as="geometry" />
        </mxCell>
        <mxCell id="zBftbOeddjgGF8Ppjcyg-361" value="Favourites" style="text;html=1;points=[];align=left;verticalAlign=top;spacingTop=-4;fontSize=14;fontFamily=Verdana" vertex="1" parent="1">
          <mxGeometry x="916" y="5170" width="60" height="20" as="geometry" />
        </mxCell>
        <mxCell id="zBftbOeddjgGF8Ppjcyg-362" value="Logout" style="text;html=1;points=[];align=left;verticalAlign=top;spacingTop=-4;fontSize=14;fontFamily=Verdana" vertex="1" parent="1">
          <mxGeometry x="1016" y="5170" width="60" height="20" as="geometry" />
        </mxCell>
        <mxCell id="zBftbOeddjgGF8Ppjcyg-363" value="" style="line;strokeWidth=1;html=1;rounded=0;shadow=0;labelBackgroundColor=none;fillColor=none;fontFamily=Verdana;fontSize=14;fontColor=#000000;align=center;comic=1;" vertex="1" parent="1">
          <mxGeometry x="16" y="5270" width="1060" height="10" as="geometry" />
        </mxCell>
        <mxCell id="zBftbOeddjgGF8Ppjcyg-364" value="" style="whiteSpace=wrap;html=1;rounded=0;shadow=0;labelBackgroundColor=none;strokeWidth=1;fillColor=none;fontFamily=Verdana;fontSize=12;align=center;comic=1;" vertex="1" parent="1">
          <mxGeometry x="41" y="5310" width="855" height="90" as="geometry" />
        </mxCell>
        <mxCell id="zBftbOeddjgGF8Ppjcyg-365" value="REPLY" style="text;html=1;points=[];align=left;verticalAlign=top;spacingTop=-4;fontSize=14;fontFamily=Verdana" vertex="1" parent="1">
          <mxGeometry x="927" y="5330" width="163" height="20" as="geometry" />
        </mxCell>
        <mxCell id="zBftbOeddjgGF8Ppjcyg-366" value="DELETE" style="text;html=1;points=[];align=left;verticalAlign=top;spacingTop=-4;fontSize=14;fontFamily=Verdana" vertex="1" parent="1">
          <mxGeometry x="927" y="5370" width="163" height="20" as="geometry" />
        </mxCell>
        <mxCell id="zBftbOeddjgGF8Ppjcyg-388" value="MESSAGES SCREEN" style="text;html=1;points=[];align=left;verticalAlign=top;spacingTop=-4;fontSize=14;fontFamily=Verdana" vertex="1" parent="1">
          <mxGeometry x="437" y="5160" width="60" height="20" as="geometry" />
        </mxCell>
        <mxCell id="zBftbOeddjgGF8Ppjcyg-389" value="MY ITEMS" style="text;html=1;points=[];align=left;verticalAlign=top;spacingTop=-4;fontSize=14;fontFamily=Verdana" vertex="1" parent="1">
          <mxGeometry x="905" y="5205" width="60" height="20" as="geometry" />
        </mxCell>
        <mxCell id="zBftbOeddjgGF8Ppjcyg-390" value="ADD ITEM" style="text;html=1;points=[];align=left;verticalAlign=top;spacingTop=-4;fontSize=14;fontFamily=Verdana" vertex="1" parent="1">
          <mxGeometry x="820" y="5205" width="60" height="20" as="geometry" />
        </mxCell>
        <mxCell id="zBftbOeddjgGF8Ppjcyg-391" value="MESSAGES" style="text;html=1;points=[];align=left;verticalAlign=top;spacingTop=-4;fontSize=14;fontFamily=Verdana" vertex="1" parent="1">
          <mxGeometry x="991" y="5205" width="60" height="20" as="geometry" />
        </mxCell>
        <mxCell id="zBftbOeddjgGF8Ppjcyg-392" value="" style="whiteSpace=wrap;html=1;rounded=0;shadow=0;labelBackgroundColor=none;strokeWidth=1;fillColor=none;fontFamily=Verdana;fontSize=12;align=center;comic=1;" vertex="1" parent="1">
          <mxGeometry x="44" y="5440" width="855" height="90" as="geometry" />
        </mxCell>
        <mxCell id="zBftbOeddjgGF8Ppjcyg-395" value="" style="whiteSpace=wrap;html=1;rounded=0;shadow=0;labelBackgroundColor=none;strokeWidth=1;fillColor=none;fontFamily=Verdana;fontSize=12;align=center;comic=1;" vertex="1" parent="1">
          <mxGeometry x="44" y="5570" width="855" height="90" as="geometry" />
        </mxCell>
        <mxCell id="zBftbOeddjgGF8Ppjcyg-398" value="" style="whiteSpace=wrap;html=1;rounded=0;shadow=0;labelBackgroundColor=none;strokeWidth=1;fillColor=none;fontFamily=Verdana;fontSize=12;align=left;comic=1;" vertex="1" parent="1">
          <mxGeometry x="44" y="5690" width="855" height="90" as="geometry" />
        </mxCell>
        <mxCell id="zBftbOeddjgGF8Ppjcyg-401" value="&quot;YOU BOUGHT THE ITEM&quot;&lt;br style=&quot;font-size: 10px;&quot;&gt;&amp;nbsp;MESSAGE WILL APPEAR WHEN A &lt;br style=&quot;font-size: 10px;&quot;&gt;USER CLICKS ON BUY BUTTON" style="text;html=1;points=[];align=left;verticalAlign=top;spacingTop=-4;fontSize=10;fontFamily=Verdana;fontStyle=2" vertex="1" parent="1">
          <mxGeometry x="760" y="2350" width="60" height="20" as="geometry" />
        </mxCell>
        <mxCell id="zBftbOeddjgGF8Ppjcyg-402" value="HERE WE DISPLAY ONLY ITEMS WHERE USER != LOGGED IN USER" style="text;html=1;points=[];align=left;verticalAlign=top;spacingTop=-4;fontSize=10;fontFamily=Verdana;fontStyle=2" vertex="1" parent="1">
          <mxGeometry x="375" y="1590" width="60" height="20" as="geometry" />
        </mxCell>
        <mxCell id="zBftbOeddjgGF8Ppjcyg-404" value="HERE WE DISPLAY ONLY ITEMS WHERE USER = LOGGED IN USER" style="text;html=1;points=[];align=left;verticalAlign=top;spacingTop=-4;fontSize=10;fontFamily=Verdana;fontStyle=2" vertex="1" parent="1">
          <mxGeometry x="397.5" y="4940" width="60" height="20" as="geometry" />
        </mxCell>
        <mxCell id="zBftbOeddjgGF8Ppjcyg-406" value="HERE WE DISPLAY ONLY MESSAGES WHERE ITEM ID IS FOR LOGGED IN USER" style="text;html=1;points=[];align=left;verticalAlign=top;spacingTop=-4;fontSize=10;fontFamily=Verdana;fontStyle=2" vertex="1" parent="1">
          <mxGeometry x="393" y="5790" width="60" height="20" as="geometry" />
        </mxCell>
        <mxCell id="zBftbOeddjgGF8Ppjcyg-407" value="" style="endArrow=none;dashed=1;html=1;rounded=0;fontSize=29;spacing=4;strokeWidth=6;" edge="1" parent="1">
          <mxGeometry width="50" height="50" relative="1" as="geometry">
            <mxPoint x="6" y="5099" as="sourcePoint" />
            <mxPoint x="1086" y="5099" as="targetPoint" />
          </mxGeometry>
        </mxCell>
        <mxCell id="zBftbOeddjgGF8Ppjcyg-410" value="" style="endArrow=none;dashed=1;html=1;rounded=0;strokeWidth=6;" edge="1" parent="1">
          <mxGeometry width="50" height="50" relative="1" as="geometry">
            <mxPoint x="10" y="2548" as="sourcePoint" />
            <mxPoint x="1090" y="2548" as="targetPoint" />
          </mxGeometry>
        </mxCell>
        <mxCell id="zBftbOeddjgGF8Ppjcyg-411" value="" style="endArrow=none;dashed=1;html=1;rounded=0;strokeWidth=6;" edge="1" parent="1">
          <mxGeometry width="50" height="50" relative="1" as="geometry">
            <mxPoint x="15" y="1699" as="sourcePoint" />
            <mxPoint x="1095" y="1699" as="targetPoint" />
          </mxGeometry>
        </mxCell>
        <mxCell id="zBftbOeddjgGF8Ppjcyg-412" value="" style="endArrow=none;dashed=1;html=1;rounded=0;strokeWidth=6;" edge="1" parent="1">
          <mxGeometry width="50" height="50" relative="1" as="geometry">
            <mxPoint x="20" y="849" as="sourcePoint" />
            <mxPoint x="1100" y="849" as="targetPoint" />
          </mxGeometry>
        </mxCell>
        <mxCell id="zBftbOeddjgGF8Ppjcyg-413" value="" style="endArrow=none;dashed=1;html=1;rounded=0;strokeWidth=6;" edge="1" parent="1">
          <mxGeometry width="50" height="50" relative="1" as="geometry">
            <mxPoint x="15" as="sourcePoint" />
            <mxPoint x="1095" as="targetPoint" />
          </mxGeometry>
        </mxCell>
        <mxCell id="zBftbOeddjgGF8Ppjcyg-414" value="" style="endArrow=none;dashed=1;html=1;rounded=0;fontSize=29;spacing=4;strokeWidth=6;" edge="1" parent="1">
          <mxGeometry width="50" height="50" relative="1" as="geometry">
            <mxPoint x="5" y="4250" as="sourcePoint" />
            <mxPoint x="1085" y="4250" as="targetPoint" />
          </mxGeometry>
        </mxCell>
        <mxCell id="zBftbOeddjgGF8Ppjcyg-415" value="" style="endArrow=none;dashed=1;html=1;rounded=0;fontSize=29;spacing=4;strokeWidth=6;" edge="1" parent="1">
          <mxGeometry width="50" height="50" relative="1" as="geometry">
            <mxPoint x="19" y="3400" as="sourcePoint" />
            <mxPoint x="1099" y="3400" as="targetPoint" />
          </mxGeometry>
        </mxCell>
        <mxCell id="zBftbOeddjgGF8Ppjcyg-416" value="" style="line;strokeWidth=1;html=1;rounded=0;shadow=0;labelBackgroundColor=none;fillColor=none;fontFamily=Verdana;fontSize=14;fontColor=#000000;align=center;comic=1;" vertex="1" parent="1">
          <mxGeometry x="16" y="-690" width="1060" height="10" as="geometry" />
        </mxCell>
        <mxCell id="zBftbOeddjgGF8Ppjcyg-417" value="" style="line;strokeWidth=1;html=1;rounded=0;shadow=0;labelBackgroundColor=none;fillColor=none;fontFamily=Verdana;fontSize=14;fontColor=#000000;align=center;comic=1;" vertex="1" parent="1">
          <mxGeometry x="16" y="-30" width="1060" height="10" as="geometry" />
        </mxCell>
        <mxCell id="zBftbOeddjgGF8Ppjcyg-418" value="" style="line;strokeWidth=1;html=1;rounded=0;shadow=0;labelBackgroundColor=none;fillColor=none;fontFamily=Verdana;fontSize=14;fontColor=#000000;align=center;comic=1;" vertex="1" parent="1">
          <mxGeometry x="16" y="1660" width="1060" height="10" as="geometry" />
        </mxCell>
        <mxCell id="zBftbOeddjgGF8Ppjcyg-419" value="" style="line;strokeWidth=1;html=1;rounded=0;shadow=0;labelBackgroundColor=none;fillColor=none;fontFamily=Verdana;fontSize=14;fontColor=#000000;align=center;comic=1;" vertex="1" parent="1">
          <mxGeometry x="17.5" y="2520" width="1060" height="10" as="geometry" />
        </mxCell>
        <mxCell id="zBftbOeddjgGF8Ppjcyg-420" value="" style="line;strokeWidth=1;html=1;rounded=0;shadow=0;labelBackgroundColor=none;fillColor=none;fontFamily=Verdana;fontSize=14;fontColor=#000000;align=center;comic=1;" vertex="1" parent="1">
          <mxGeometry x="16" y="3370" width="1060" height="10" as="geometry" />
        </mxCell>
        <mxCell id="zBftbOeddjgGF8Ppjcyg-421" value="" style="line;strokeWidth=1;html=1;rounded=0;shadow=0;labelBackgroundColor=none;fillColor=none;fontFamily=Verdana;fontSize=14;fontColor=#000000;align=center;comic=1;" vertex="1" parent="1">
          <mxGeometry x="17.5" y="3560" width="1060" height="10" as="geometry" />
        </mxCell>
        <mxCell id="zBftbOeddjgGF8Ppjcyg-422" value="" style="line;strokeWidth=1;html=1;rounded=0;shadow=0;labelBackgroundColor=none;fillColor=none;fontFamily=Verdana;fontSize=14;fontColor=#000000;align=center;comic=1;" vertex="1" parent="1">
          <mxGeometry x="20" y="4220" width="1060" height="10" as="geometry" />
        </mxCell>
        <mxCell id="zBftbOeddjgGF8Ppjcyg-424" value="" style="line;strokeWidth=1;html=1;rounded=0;shadow=0;labelBackgroundColor=none;fillColor=none;fontFamily=Verdana;fontSize=14;fontColor=#000000;align=center;comic=1;" vertex="1" parent="1">
          <mxGeometry x="20" y="5070" width="1060" height="10" as="geometry" />
        </mxCell>
        <mxCell id="zBftbOeddjgGF8Ppjcyg-425" value="" style="line;strokeWidth=1;html=1;rounded=0;shadow=0;labelBackgroundColor=none;fillColor=none;fontFamily=Verdana;fontSize=14;fontColor=#000000;align=center;comic=1;" vertex="1" parent="1">
          <mxGeometry x="20" y="5920" width="1060" height="10" as="geometry" />
        </mxCell>
        <mxCell id="zBftbOeddjgGF8Ppjcyg-426" value="REPLY" style="text;html=1;points=[];align=left;verticalAlign=top;spacingTop=-4;fontSize=14;fontFamily=Verdana" vertex="1" parent="1">
          <mxGeometry x="920" y="5455" width="163" height="20" as="geometry" />
        </mxCell>
        <mxCell id="zBftbOeddjgGF8Ppjcyg-427" value="DELETE" style="text;html=1;points=[];align=left;verticalAlign=top;spacingTop=-4;fontSize=14;fontFamily=Verdana" vertex="1" parent="1">
          <mxGeometry x="920" y="5495" width="163" height="20" as="geometry" />
        </mxCell>
        <mxCell id="zBftbOeddjgGF8Ppjcyg-428" value="REPLY" style="text;html=1;points=[];align=left;verticalAlign=top;spacingTop=-4;fontSize=14;fontFamily=Verdana" vertex="1" parent="1">
          <mxGeometry x="922" y="5585" width="163" height="20" as="geometry" />
        </mxCell>
        <mxCell id="zBftbOeddjgGF8Ppjcyg-429" value="DELETE" style="text;html=1;points=[];align=left;verticalAlign=top;spacingTop=-4;fontSize=14;fontFamily=Verdana" vertex="1" parent="1">
          <mxGeometry x="922" y="5625" width="163" height="20" as="geometry" />
        </mxCell>
        <mxCell id="zBftbOeddjgGF8Ppjcyg-430" value="REPLY" style="text;html=1;points=[];align=left;verticalAlign=top;spacingTop=-4;fontSize=14;fontFamily=Verdana" vertex="1" parent="1">
          <mxGeometry x="922" y="5705" width="163" height="20" as="geometry" />
        </mxCell>
        <mxCell id="zBftbOeddjgGF8Ppjcyg-431" value="DELETE" style="text;html=1;points=[];align=left;verticalAlign=top;spacingTop=-4;fontSize=14;fontFamily=Verdana" vertex="1" parent="1">
          <mxGeometry x="922" y="5745" width="163" height="20" as="geometry" />
        </mxCell>
      </root>
    </mxGraphModel>
  </diagram>
</mxfile>
